<mxfile host="app.diagrams.net" agent="Mozilla/5.0 (Windows NT 10.0; Win64; x64) AppleWebKit/537.36 (KHTML, like Gecko) Chrome/131.0.0.0 Safari/537.36" version="25.0.3">
  <diagram name="Page-1" id="Wy1OQKJcWPc-IRxoSolE">
    <mxGraphModel dx="880" dy="472" grid="1" gridSize="10" guides="1" tooltips="1" connect="1" arrows="1" fold="1" page="1" pageScale="1" pageWidth="850" pageHeight="1100" math="0" shadow="0">
      <root>
        <mxCell id="0" />
        <mxCell id="1" parent="0" />
        <mxCell id="SLuA622SSdulg7xQy2i6-1" value="Sulitnya Identifikasi Minat dan Bakat Siswa" style="rounded=1;whiteSpace=wrap;html=1;strokeColor=#ff0000;strokeWidth=3;" parent="1" vertex="1">
          <mxGeometry x="630" y="230" width="160" height="80" as="geometry" />
        </mxCell>
        <mxCell id="SLuA622SSdulg7xQy2i6-2" value="" style="endArrow=classic;html=1;rounded=0;entryX=0;entryY=0.5;entryDx=0;entryDy=0;strokeColor=#ff0000;strokeWidth=3;" parent="1" target="SLuA622SSdulg7xQy2i6-1" edge="1">
          <mxGeometry width="50" height="50" relative="1" as="geometry">
            <mxPoint x="30" y="270" as="sourcePoint" />
            <mxPoint x="440" y="250" as="targetPoint" />
          </mxGeometry>
        </mxCell>
        <mxCell id="SLuA622SSdulg7xQy2i6-3" value="" style="endArrow=none;dashed=1;html=1;rounded=0;strokeColor=#0000CC;strokeWidth=2;" parent="1" edge="1">
          <mxGeometry width="50" height="50" relative="1" as="geometry">
            <mxPoint x="600" y="440" as="sourcePoint" />
            <mxPoint x="600" y="20" as="targetPoint" />
          </mxGeometry>
        </mxCell>
        <mxCell id="SLuA622SSdulg7xQy2i6-4" value="Metode Konvensional" style="rounded=0;whiteSpace=wrap;html=1;strokeColor=#FF3333;" parent="1" vertex="1">
          <mxGeometry x="50" y="120" width="140" height="40" as="geometry" />
        </mxCell>
        <mxCell id="SLuA622SSdulg7xQy2i6-5" value="" style="endArrow=classic;html=1;rounded=0;exitX=0.462;exitY=1.005;exitDx=0;exitDy=0;exitPerimeter=0;strokeColor=#FF3333;" parent="1" source="SLuA622SSdulg7xQy2i6-4" edge="1">
          <mxGeometry width="50" height="50" relative="1" as="geometry">
            <mxPoint x="182.9999999999999" y="149.99999999999994" as="sourcePoint" />
            <mxPoint x="233" y="270" as="targetPoint" />
          </mxGeometry>
        </mxCell>
        <mxCell id="SLuA622SSdulg7xQy2i6-7" value="Data yang Besar" style="rounded=0;whiteSpace=wrap;html=1;strokeColor=#FF3333;" parent="1" vertex="1">
          <mxGeometry x="45" y="360" width="140" height="40" as="geometry" />
        </mxCell>
        <mxCell id="SLuA622SSdulg7xQy2i6-12" value="" style="endArrow=classic;html=1;rounded=0;exitX=0.5;exitY=0;exitDx=0;exitDy=0;strokeColor=#FF3333;" parent="1" source="SLuA622SSdulg7xQy2i6-7" edge="1">
          <mxGeometry width="50" height="50" relative="1" as="geometry">
            <mxPoint x="130" y="290" as="sourcePoint" />
            <mxPoint x="270" y="270" as="targetPoint" />
          </mxGeometry>
        </mxCell>
        <mxCell id="IdLxyNCqbkNmSG0s4oJz-2" value="" style="endArrow=classic;html=1;rounded=0;strokeColor=#FF3333;" edge="1" parent="1">
          <mxGeometry width="50" height="50" relative="1" as="geometry">
            <mxPoint x="36" y="215.57999999999998" as="sourcePoint" />
            <mxPoint x="176" y="215.57999999999998" as="targetPoint" />
          </mxGeometry>
        </mxCell>
        <mxCell id="IdLxyNCqbkNmSG0s4oJz-3" value="&lt;font style=&quot;font-size: 10px;&quot;&gt;Sulit menganalisis&lt;br&gt;hasil secara manual&lt;/font&gt;" style="text;html=1;align=center;verticalAlign=middle;whiteSpace=wrap;rounded=0;" vertex="1" parent="1">
          <mxGeometry x="30" y="180" width="130" height="30" as="geometry" />
        </mxCell>
        <mxCell id="IdLxyNCqbkNmSG0s4oJz-4" value="" style="endArrow=classic;html=1;rounded=0;strokeColor=#FF3333;" edge="1" parent="1">
          <mxGeometry width="50" height="50" relative="1" as="geometry">
            <mxPoint x="340" y="239" as="sourcePoint" />
            <mxPoint x="200" y="239" as="targetPoint" />
          </mxGeometry>
        </mxCell>
        <mxCell id="IdLxyNCqbkNmSG0s4oJz-5" value="&lt;font style=&quot;font-size: 10px;&quot;&gt;Waktu analisis lama dan hasil kurang akurat&lt;/font&gt;" style="text;html=1;align=center;verticalAlign=middle;whiteSpace=wrap;rounded=0;" vertex="1" parent="1">
          <mxGeometry x="200" y="204" width="130" height="30" as="geometry" />
        </mxCell>
        <mxCell id="IdLxyNCqbkNmSG0s4oJz-6" value="" style="endArrow=classic;html=1;rounded=0;strokeColor=#FF3333;" edge="1" parent="1">
          <mxGeometry width="50" height="50" relative="1" as="geometry">
            <mxPoint x="79" y="300" as="sourcePoint" />
            <mxPoint x="219" y="300" as="targetPoint" />
          </mxGeometry>
        </mxCell>
        <mxCell id="IdLxyNCqbkNmSG0s4oJz-7" value="&lt;font style=&quot;font-size: 10px;&quot;&gt;Tidak terkelola dengan baik&lt;/font&gt;" style="text;html=1;align=center;verticalAlign=middle;whiteSpace=wrap;rounded=0;" vertex="1" parent="1">
          <mxGeometry x="82" y="277" width="130" height="20" as="geometry" />
        </mxCell>
        <mxCell id="IdLxyNCqbkNmSG0s4oJz-9" value="&lt;font style=&quot;font-size: 10px;&quot;&gt;Sulit mengelola hasil tes&lt;/font&gt;" style="text;html=1;align=center;verticalAlign=middle;whiteSpace=wrap;rounded=0;" vertex="1" parent="1">
          <mxGeometry x="179" y="320" width="130" height="20" as="geometry" />
        </mxCell>
        <mxCell id="IdLxyNCqbkNmSG0s4oJz-10" value="Infrastruktur / Sistem" style="rounded=0;whiteSpace=wrap;html=1;strokeColor=#FF3333;" vertex="1" parent="1">
          <mxGeometry x="309" y="110" width="130" height="40" as="geometry" />
        </mxCell>
        <mxCell id="IdLxyNCqbkNmSG0s4oJz-11" value="" style="endArrow=classic;html=1;rounded=0;exitX=0.5;exitY=1;exitDx=0;exitDy=0;strokeColor=#FF3333;" edge="1" parent="1" source="IdLxyNCqbkNmSG0s4oJz-10">
          <mxGeometry width="50" height="50" relative="1" as="geometry">
            <mxPoint x="415" y="150" as="sourcePoint" />
            <mxPoint x="470" y="270" as="targetPoint" />
          </mxGeometry>
        </mxCell>
        <mxCell id="IdLxyNCqbkNmSG0s4oJz-12" value="" style="endArrow=classic;html=1;rounded=0;strokeColor=#FF3333;" edge="1" parent="1">
          <mxGeometry width="50" height="50" relative="1" as="geometry">
            <mxPoint x="253" y="198.71" as="sourcePoint" />
            <mxPoint x="413" y="198.71" as="targetPoint" />
          </mxGeometry>
        </mxCell>
        <mxCell id="IdLxyNCqbkNmSG0s4oJz-13" value="&lt;font style=&quot;font-size: 10px;&quot;&gt;Tidak ada sistem (seperti web) untuk melakukan analisis&lt;/font&gt;" style="text;html=1;align=center;verticalAlign=middle;whiteSpace=wrap;rounded=0;" vertex="1" parent="1">
          <mxGeometry x="240" y="164" width="155" height="30" as="geometry" />
        </mxCell>
        <mxCell id="IdLxyNCqbkNmSG0s4oJz-14" value="" style="endArrow=classic;html=1;rounded=0;strokeColor=#FF3333;" edge="1" parent="1">
          <mxGeometry width="50" height="50" relative="1" as="geometry">
            <mxPoint x="579" y="230" as="sourcePoint" />
            <mxPoint x="439" y="230" as="targetPoint" />
          </mxGeometry>
        </mxCell>
        <mxCell id="IdLxyNCqbkNmSG0s4oJz-15" value="&lt;font style=&quot;font-size: 10px;&quot;&gt;Belum memanfaatkan algoritma untuk analisis data&lt;/font&gt;" style="text;html=1;align=center;verticalAlign=middle;whiteSpace=wrap;rounded=0;" vertex="1" parent="1">
          <mxGeometry x="450" y="194" width="130" height="30" as="geometry" />
        </mxCell>
        <mxCell id="IdLxyNCqbkNmSG0s4oJz-16" value="" style="endArrow=classic;html=1;rounded=0;exitX=1.02;exitY=0.892;exitDx=0;exitDy=0;exitPerimeter=0;strokeColor=#FF3333;" edge="1" parent="1">
          <mxGeometry width="50" height="50" relative="1" as="geometry">
            <mxPoint x="303.6" y="340" as="sourcePoint" />
            <mxPoint x="150" y="340.24" as="targetPoint" />
          </mxGeometry>
        </mxCell>
        <mxCell id="IdLxyNCqbkNmSG0s4oJz-19" value="Pelaporan / Reporting" style="rounded=0;whiteSpace=wrap;html=1;strokeColor=#FF3333;" vertex="1" parent="1">
          <mxGeometry x="275" y="380" width="140" height="40" as="geometry" />
        </mxCell>
        <mxCell id="IdLxyNCqbkNmSG0s4oJz-23" value="" style="endArrow=classic;html=1;rounded=0;exitX=0.5;exitY=0;exitDx=0;exitDy=0;strokeColor=#FF3333;" edge="1" parent="1" source="IdLxyNCqbkNmSG0s4oJz-19">
          <mxGeometry width="50" height="50" relative="1" as="geometry">
            <mxPoint x="430" y="380" as="sourcePoint" />
            <mxPoint x="550" y="270" as="targetPoint" />
          </mxGeometry>
        </mxCell>
        <mxCell id="IdLxyNCqbkNmSG0s4oJz-25" value="" style="endArrow=classic;html=1;rounded=0;strokeColor=#FF3333;" edge="1" parent="1">
          <mxGeometry width="50" height="50" relative="1" as="geometry">
            <mxPoint x="312" y="311.99999999999994" as="sourcePoint" />
            <mxPoint x="472" y="311.99999999999994" as="targetPoint" />
          </mxGeometry>
        </mxCell>
        <mxCell id="IdLxyNCqbkNmSG0s4oJz-26" value="&lt;font style=&quot;font-size: 10px;&quot;&gt;Hasil laporan tidak real-time&amp;nbsp;&lt;/font&gt;" style="text;html=1;align=center;verticalAlign=middle;whiteSpace=wrap;rounded=0;" vertex="1" parent="1">
          <mxGeometry x="325" y="279.99999999999994" width="145" height="30" as="geometry" />
        </mxCell>
        <mxCell id="IdLxyNCqbkNmSG0s4oJz-27" value="" style="endArrow=classic;html=1;rounded=0;strokeColor=#FF3333;" edge="1" parent="1">
          <mxGeometry width="50" height="50" relative="1" as="geometry">
            <mxPoint x="570" y="360" as="sourcePoint" />
            <mxPoint x="380" y="359.99999999999994" as="targetPoint" />
          </mxGeometry>
        </mxCell>
        <mxCell id="IdLxyNCqbkNmSG0s4oJz-28" value="&lt;span style=&quot;font-size: 10px;&quot;&gt;Memerlukan waktu lama&lt;br&gt;&lt;/span&gt;&lt;span style=&quot;font-size: 10px;&quot;&gt;dan rentan terjadi kesalahan&lt;/span&gt;" style="text;html=1;align=center;verticalAlign=middle;whiteSpace=wrap;rounded=0;" vertex="1" parent="1">
          <mxGeometry x="415" y="330" width="170" height="24.69" as="geometry" />
        </mxCell>
        <mxCell id="IdLxyNCqbkNmSG0s4oJz-31" value="" style="endArrow=none;dashed=1;html=1;rounded=0;strokeColor=#0000CC;strokeWidth=2;" edge="1" parent="1">
          <mxGeometry width="50" height="50" relative="1" as="geometry">
            <mxPoint x="45" y="90" as="sourcePoint" />
            <mxPoint x="805" y="90" as="targetPoint" />
          </mxGeometry>
        </mxCell>
        <mxCell id="IdLxyNCqbkNmSG0s4oJz-57" value="Effect" style="text;strokeColor=none;fillColor=none;html=1;fontSize=24;fontStyle=1;verticalAlign=middle;align=center;" vertex="1" parent="1">
          <mxGeometry x="600" y="40" width="200" height="40" as="geometry" />
        </mxCell>
        <mxCell id="IdLxyNCqbkNmSG0s4oJz-58" value="Cause" style="text;strokeColor=none;fillColor=none;html=1;fontSize=24;fontStyle=1;verticalAlign=middle;align=center;" vertex="1" parent="1">
          <mxGeometry x="40" y="40" width="560" height="40" as="geometry" />
        </mxCell>
      </root>
    </mxGraphModel>
  </diagram>
</mxfile>
